<svg width="19" height="26" viewBox="0 0 19 26" fill="none" xmlns="http://www.w3.org/2000/svg">
<path d="M7.20122 5.27825L9.76456 0.0875494C9.81718 -0.0291831 9.97504 -0.0291831 10.0352 0.0875494L12.7489 5.27825C12.8015 5.37942 12.7338 5.51172 12.6136 5.51172H7.33653C7.22377 5.51172 7.1486 5.3872 7.20122 5.27825Z" fill="#0F6C32"/>
<path d="M17.881 23.712C17.881 23.712 14.6424 25.9999 9.97494 25.9999C5.30751 25.9999 2.25478 23.9082 2.25478 23.9082C2.45019 16.0242 0.767844 15.8085 0.805424 15.0954C0.85052 14.4219 5.40521 7.42267 5.93885 6.60389C5.96891 6.55107 6.02904 6.52466 6.09668 6.52466H8.93022V15.2209C6.94599 15.6567 5.48037 17.2348 5.48037 19.1167C5.48037 21.2758 7.52472 23.1115 9.97494 23.1445C12.5454 23.1841 14.6424 21.3683 14.6424 19.1167C14.6424 17.1357 13.0114 15.4916 10.8693 15.1614V6.52466H13.7029C13.7705 6.52466 13.8231 6.55107 13.8607 6.60389C14.3943 7.42267 18.9566 14.4219 18.9941 15.0954C19.0317 15.8085 17.6931 15.8346 17.881 23.712Z" fill="#0F6C32"/>
</svg>
