<svg width="21" height="21" viewBox="0 0 21 21" fill="none" xmlns="http://www.w3.org/2000/svg">
<path fill-rule="evenodd" clip-rule="evenodd" d="M4.03484 5.6586L8.64226 1.24315C9.75646 0.17538 11.5142 0.175378 12.6284 1.24315L17.2358 5.6586H19.9023C20.5398 5.6586 21.0294 6.22317 20.9393 6.85421L19.4006 17.6252C19.1794 19.1733 17.8536 20.3232 16.2897 20.3232H4.98096C3.41713 20.3232 2.09128 19.1733 1.87012 17.6252L0.331403 6.85421C0.241256 6.22317 0.73091 5.6586 1.36835 5.6586H4.03484ZM9.72939 2.37755C10.2358 1.8922 11.0348 1.8922 11.5413 2.37755L14.965 5.6586H6.30569L9.72939 2.37755ZM1.97222 7.22981L3.42554 17.403C3.53612 18.1771 4.19905 18.752 4.98096 18.752H16.2897C17.0717 18.752 17.7346 18.1771 17.8452 17.403L19.2985 7.22981H1.97222Z" fill="black"/>
</svg>
